<mxfile host="app.diagrams.net" agent="Mozilla/5.0 (Windows NT 10.0; Win64; x64) AppleWebKit/537.36 (KHTML, like Gecko) Chrome/130.0.0.0 Safari/537.36" version="24.8.4">
  <diagram name="Clinical Trial Database" id="0">
    <mxGraphModel dx="1434" dy="738" grid="1" gridSize="10" guides="1" tooltips="1" connect="1" arrows="1" fold="1" page="1" pageScale="1" pageWidth="827" pageHeight="1169" math="0" shadow="0">
      <root>
        <mxCell id="0" />
        <mxCell id="1" parent="0" />
        <mxCell id="2" value="Clinical Trial" style="shape=rectangle;whiteSpace=wrap;html=1;" parent="1" vertex="1">
          <mxGeometry x="100" y="360" width="120" height="90" as="geometry" />
        </mxCell>
        <mxCell id="7" value="Phase" style="shape=rectangle;whiteSpace=wrap;html=1;" parent="1" vertex="1">
          <mxGeometry x="230" y="620" width="120" height="110" as="geometry" />
        </mxCell>
        <mxCell id="13" value="has_phases" style="edgeStyle=elbowEdgeStyle;rounded=0;orthogonalLoop=1;html=1;exitX=0.5;exitY=1;entryX=0.5;entryY=0;" parent="1" source="2" target="7" edge="1">
          <mxGeometry relative="1" as="geometry" />
        </mxCell>
        <mxCell id="14" value="Drug" style="shape=rectangle;whiteSpace=wrap;html=1;" parent="1" vertex="1">
          <mxGeometry x="390" y="360" width="120" height="90" as="geometry" />
        </mxCell>
        <mxCell id="19" value="administers" style="edgeStyle=elbowEdgeStyle;rounded=0;orthogonalLoop=1;html=1;exitX=0.5;exitY=1;entryX=0.5;entryY=0;" parent="1" source="7" target="14" edge="1">
          <mxGeometry relative="1" as="geometry" />
        </mxCell>
        <mxCell id="20" value="Patient" style="shape=rectangle;whiteSpace=wrap;html=1;" parent="1" vertex="1">
          <mxGeometry x="600" y="620" width="120" height="110" as="geometry" />
        </mxCell>
        <mxCell id="26" value="administers_to" style="edgeStyle=elbowEdgeStyle;rounded=0;orthogonalLoop=1;html=1;exitX=0.5;exitY=1;entryX=0.5;entryY=0;" parent="1" source="20" target="14" edge="1">
          <mxGeometry relative="1" as="geometry" />
        </mxCell>
        <mxCell id="6" value="purpose" style="whiteSpace=wrap;html=1;" parent="1" vertex="1">
          <mxGeometry x="100" y="510" width="80" height="20" as="geometry" />
        </mxCell>
        <mxCell id="5" value="date" style="whiteSpace=wrap;html=1;" parent="1" vertex="1">
          <mxGeometry x="100" y="490" width="80" height="20" as="geometry" />
        </mxCell>
        <mxCell id="4" value="name" style="whiteSpace=wrap;html=1;" parent="1" vertex="1">
          <mxGeometry x="100" y="470" width="80" height="20" as="geometry" />
        </mxCell>
        <mxCell id="3" value="trial_id" style="whiteSpace=wrap;html=1;" parent="1" vertex="1">
          <mxGeometry x="100" y="450" width="80" height="20" as="geometry" />
        </mxCell>
        <mxCell id="8" value="phase_id" style="whiteSpace=wrap;html=1;" parent="1" vertex="1">
          <mxGeometry x="230" y="730" width="80" height="20" as="geometry" />
        </mxCell>
        <mxCell id="9" value="phase_name" style="whiteSpace=wrap;html=1;" parent="1" vertex="1">
          <mxGeometry x="230" y="750" width="80" height="20" as="geometry" />
        </mxCell>
        <mxCell id="10" value="start_date" style="whiteSpace=wrap;html=1;" parent="1" vertex="1">
          <mxGeometry x="230" y="770" width="80" height="20" as="geometry" />
        </mxCell>
        <mxCell id="11" value="end_date" style="whiteSpace=wrap;html=1;" parent="1" vertex="1">
          <mxGeometry x="230" y="790" width="80" height="20" as="geometry" />
        </mxCell>
        <mxCell id="12" value="dosage" style="whiteSpace=wrap;html=1;" parent="1" vertex="1">
          <mxGeometry x="230" y="810" width="80" height="20" as="geometry" />
        </mxCell>
        <mxCell id="15" value="drug_id" style="whiteSpace=wrap;html=1;" parent="1" vertex="1">
          <mxGeometry x="390" y="450" width="80" height="20" as="geometry" />
        </mxCell>
        <mxCell id="16" value="name" style="whiteSpace=wrap;html=1;" parent="1" vertex="1">
          <mxGeometry x="390" y="470" width="80" height="20" as="geometry" />
        </mxCell>
        <mxCell id="17" value="effect" style="whiteSpace=wrap;html=1;" parent="1" vertex="1">
          <mxGeometry x="390" y="490" width="80" height="20" as="geometry" />
        </mxCell>
        <mxCell id="18" value="dosage" style="whiteSpace=wrap;html=1;" parent="1" vertex="1">
          <mxGeometry x="390" y="510" width="80" height="20" as="geometry" />
        </mxCell>
        <mxCell id="21" value="patient_id" style="whiteSpace=wrap;html=1;" parent="1" vertex="1">
          <mxGeometry x="600" y="730" width="80" height="20" as="geometry" />
        </mxCell>
        <mxCell id="22" value="name" style="whiteSpace=wrap;html=1;" parent="1" vertex="1">
          <mxGeometry x="600" y="750" width="80" height="20" as="geometry" />
        </mxCell>
        <mxCell id="23" value="gender" style="whiteSpace=wrap;html=1;" parent="1" vertex="1">
          <mxGeometry x="600" y="770" width="80" height="20" as="geometry" />
        </mxCell>
        <mxCell id="24" value="age" style="whiteSpace=wrap;html=1;" parent="1" vertex="1">
          <mxGeometry x="600" y="790" width="80" height="20" as="geometry" />
        </mxCell>
        <mxCell id="25" value="medical_condition" style="whiteSpace=wrap;html=1;" parent="1" vertex="1">
          <mxGeometry x="600" y="810" width="80" height="20" as="geometry" />
        </mxCell>
      </root>
    </mxGraphModel>
  </diagram>
</mxfile>
